<?xml version="1.0" encoding="utf-8"?>
<!-- Generator: Adobe Illustrator 24.0.3, SVG Export Plug-In . SVG Version: 6.00 Build 0)  -->
<svg version="1.1" id="Layer_1" xmlns="http://www.w3.org/2000/svg" xmlns:xlink="http://www.w3.org/1999/xlink" x="0px" y="0px"
	 viewBox="0 0 100 125" style="enable-background:new 0 0 100 125;" xml:space="preserve">
<style type="text/css">
	.st0{fill:#FFFFFF;}
</style>
<g id="Layer_2_1_">
</g>
<g id="Layer_1_1_">
	<g>
		<path class="st0" d="M46.9,78.7c0.9,0.9,1.9,0.9,2.6,0l3.9-3.9c0.9-0.9,0.9-1.9,0-2.6L48,66.8h23.2c1.1,0,1.9-0.9,1.9-1.9v-5.6
			c0-1.1-0.9-1.9-1.9-1.9H48l5.4-5.4c0.9-0.9,0.9-1.9,0-2.6l-3.9-3.9c-0.9-0.9-1.9-0.9-2.6,0L31.6,60.7c-0.9,0.9-0.9,1.9,0,2.6
			L46.9,78.7z"/>
		<path class="st0" d="M22.7,101.9h58.5c6.1,0,10.8-5,10.8-10.8V32.6c0-6.1-5-10.8-10.8-10.8H22.7c-6.1,0-10.8,5-10.8,10.8v58.5
			C11.9,97.1,16.8,101.9,22.7,101.9z M21.2,32.6c0-0.9,0.6-1.5,1.5-1.5h58.5c0.9,0,1.5,0.6,1.5,1.5v58.5c0,0.9-0.6,1.5-1.5,1.5H22.7
			c-0.9,0-1.5-0.6-1.5-1.5C21.2,90.8,21.2,32.6,21.2,32.6z"/>
	</g>
</g>
</svg>
