<?xml version="1.0" encoding="utf-8"?>
<!-- Generator: Adobe Illustrator 24.0.3, SVG Export Plug-In . SVG Version: 6.00 Build 0)  -->
<svg version="1.1" id="Layer_1" xmlns="http://www.w3.org/2000/svg" xmlns:xlink="http://www.w3.org/1999/xlink" x="0px" y="0px"
	 viewBox="0 0 100 125" style="enable-background:new 0 0 100 125;" xml:space="preserve">
<style type="text/css">
	.st0{fill:#FFFFFF;}
</style>
<g id="Layer_2_1_">
</g>
<g id="Layer_1_2_">
	<g>
		<path class="st0" d="M55,46.2c-0.9-0.9-1.9-0.9-2.6,0l-3.9,3.9c-0.9,0.9-0.9,1.9,0,2.6l5.4,5.4H30.7c-1.1,0-1.9,0.9-1.9,1.9v5.6
			c0,1.1,0.9,1.9,1.9,1.9h23.2l-5.4,5.4c-0.9,0.9-0.9,1.9,0,2.6l3.9,3.9c0.9,0.9,1.9,0.9,2.6,0l15.4-15.4c0.9-0.9,0.9-1.9,0-2.6
			L55,46.2z"/>
		<path class="st0" d="M79.2,22.8H20.8c-6.1,0-10.8,5-10.8,10.8v58.5c0,6.1,5,10.8,10.8,10.8h58.5c6.1,0,10.8-5,10.8-10.8V33.6
			C90.1,27.8,85.3,22.8,79.2,22.8z M80.8,92.1c0,0.9-0.6,1.5-1.5,1.5H20.8c-0.9,0-1.5-0.6-1.5-1.5V33.6c0-0.9,0.6-1.5,1.5-1.5h58.5
			c0.9,0,1.5,0.6,1.5,1.5V92.1L80.8,92.1z"/>
	</g>
</g>
</svg>
