<?xml version="1.0" encoding="utf-8"?>
<!-- Generator: Adobe Illustrator 24.1.2, SVG Export Plug-In . SVG Version: 6.00 Build 0)  -->
<svg version="1.1" id="Layer_1" xmlns="http://www.w3.org/2000/svg" xmlns:xlink="http://www.w3.org/1999/xlink" x="0px" y="0px"
	 viewBox="0 0 100 125" style="enable-background:new 0 0 100 125;" xml:space="preserve">
<style type="text/css">
	.st0{fill:#FFFFFF;}
</style>
<path class="st0" d="M88.7,84.6C87,68.7,73,59.3,51.7,59.3c-20.6,0-34,8.4-36.7,23.2c-0.3,2-0.6,6-0.6,7.5c0,1.6,1.3,2.8,2.8,2.8
	S20,91.6,20,90c0-1.7,0.1-5.1,0.4-6.6C23.3,67.4,41.1,65,51.5,65c8.7,0,29.3,2,31.3,20.4c0,0.4,0.1,2.8,0.1,6.8
	c0,1.6,1.3,2.8,2.8,2.8l0,0c1.6,0,2.8-1.3,2.8-2.8C88.8,89,88.7,85.5,88.7,84.6z M51.7,52.8c11.4,0,20.6-11.1,20.6-24.8
	c0-13-8.5-22.1-20.6-22.1S31,15.1,31,28.1C31,41.7,40.3,52.8,51.7,52.8z M51.7,11.7c9,0,15,6.6,15,16.4c0,10.5-6.7,19.1-15,19.1
	s-15-8.5-15-19.1C36.7,18.2,42.7,11.7,51.7,11.7z"/>
</svg>
