<?xml version="1.0" encoding="utf-8"?>
<!-- Generator: Adobe Illustrator 24.1.2, SVG Export Plug-In . SVG Version: 6.00 Build 0)  -->
<svg version="1.1" id="Layer_1" xmlns="http://www.w3.org/2000/svg" xmlns:xlink="http://www.w3.org/1999/xlink" x="0px" y="0px"
	 viewBox="0 0 64 80" style="enable-background:new 0 0 64 80;" xml:space="preserve">
<style type="text/css">
	.st0{fill:#FFFFFF;}
</style>
<g>
	<path class="st0" d="M57.5,27.9l-23-19c-1.5-1.2-3.5-1.2-5,0l-23,19C5.6,28.6,5,29.8,5,31c0,0.9,0.3,1.8,0.9,2.5
		c0.6,0.8,1.6,1.3,2.6,1.5c1.1,0.1,2.1-0.2,2.9-0.9l0.6-0.5v17.5c0,2.7,2.6,4.8,5.8,4.8h6.9c1.8,0,3.3-1.5,3.3-3.3v0v-8.4
		c0-0.7,0.6-1.3,1.3-1.3h5.4c0.7,0,1.3,0.6,1.3,1.3c0,0,0,0,0,0v8.4c0,1.8,1.5,3.3,3.3,3.3h6.9c3.2,0,5.8-2.2,5.8-4.8V33.6l0.6,0.5
		c0.7,0.6,1.6,0.9,2.5,0.9h0.4c1-0.1,2-0.6,2.6-1.5C59.5,31.8,59.3,29.3,57.5,27.9z M50,51.2c0,1.5-1.7,2.8-3.8,2.8h-6.9
		c-0.7,0-1.3-0.6-1.3-1.3v-8.4c0-1.8-1.5-3.3-3.3-3.3h0h-5.4c-1.8,0-3.3,1.5-3.3,3.3v8.4c0,0.7-0.6,1.3-1.3,1.3l0,0h-6.9
		c-2.1,0-3.8-1.3-3.8-2.8v-18c0-0.8,0.4-1.5,1.1-2l15.7-12.6c0.7-0.5,1.7-0.5,2.5,0l15.7,12.6l0,0c0.6,0.5,1,1.2,1,2L50,51.2z
		 M56.6,32.2L56.6,32.2c-0.7,0.8-1.9,1-2.7,0.3c0,0,0,0,0,0L34.5,16.6c-0.7-0.6-1.6-0.9-2.5-0.9c-0.9,0-1.8,0.3-2.5,0.9L10.2,32.5
		c-0.4,0.3-0.9,0.5-1.4,0.4c-0.5-0.1-1-0.3-1.3-0.7C7.2,31.9,7,31.4,7,31c0-0.6,0.3-1.2,0.7-1.5l23-19c0.7-0.6,1.7-0.6,2.4,0l23,19
		C57.1,30.1,57.2,31.4,56.6,32.2z"/>
</g>
</svg>
