<?xml version="1.0" encoding="utf-8"?>
<!-- Generator: Adobe Illustrator 24.1.2, SVG Export Plug-In . SVG Version: 6.00 Build 0)  -->
<svg version="1.1" id="Layer_1" xmlns="http://www.w3.org/2000/svg" xmlns:xlink="http://www.w3.org/1999/xlink" x="0px" y="0px"
	 viewBox="0 0 100 125" style="enable-background:new 0 0 100 125;" xml:space="preserve">
<style type="text/css">
	.st0{fill:#FFFFFF;}
</style>
<g>
	<path class="st0" d="M95,49.3c0-0.1,0-0.2,0-0.3c0-0.1,0-0.1,0-0.2c0-0.1,0-0.2-0.1-0.3c0,0,0-0.1-0.1-0.2c0-0.1-0.1-0.2-0.1-0.3
		c0,0,0-0.1-0.1-0.1c0-0.1-0.1-0.2-0.2-0.2c0,0-0.1-0.1-0.1-0.1c0,0,0-0.1-0.1-0.1l-6.6-5.8l-36-31.7c0,0,0,0-0.1,0
		c-0.1-0.1-0.1-0.1-0.2-0.2c0,0-0.1,0-0.1-0.1c0,0-0.1,0-0.1,0c-0.1,0-0.1-0.1-0.2-0.1c0,0-0.1,0-0.1-0.1c0,0-0.1,0-0.1,0
		c-0.1,0-0.2,0-0.2-0.1c0,0-0.1,0-0.1,0c0,0-0.1,0-0.1,0c-0.1,0-0.1,0-0.2,0c0,0,0,0,0,0v0c0,0,0,0,0,0c-0.1,0-0.1,0-0.2,0
		c0,0-0.1,0-0.1,0c0,0-0.1,0-0.1,0c-0.1,0-0.2,0-0.2,0.1c0,0-0.1,0-0.1,0c0,0-0.1,0-0.1,0.1c-0.1,0-0.1,0.1-0.2,0.1c0,0-0.1,0-0.1,0
		c0,0-0.1,0-0.1,0.1c-0.1,0-0.1,0.1-0.2,0.2c0,0,0,0-0.1,0l-36,31.7l-6.6,5.8c0,0,0,0-0.1,0.1c0,0-0.1,0.1-0.1,0.1
		c-0.1,0.1-0.1,0.1-0.2,0.2c0,0-0.1,0.1-0.1,0.1c-0.1,0.1-0.1,0.2-0.1,0.3c0,0,0,0.1-0.1,0.2c0,0.1-0.1,0.2-0.1,0.3
		C5,48.9,5,49,5,49c0,0.1,0,0.2,0,0.3c0,0,0,0,0,0.1c0,0,0,0.1,0,0.1c0,0.1,0,0.2,0,0.3c0,0.1,0,0.2,0,0.2c0,0.1,0,0.2,0.1,0.2
		c0,0.1,0.1,0.2,0.1,0.2c0,0.1,0.1,0.1,0.1,0.2c0,0.1,0.1,0.2,0.2,0.2c0,0,0,0.1,0.1,0.1c0,0,0,0,0,0c0.1,0.1,0.2,0.2,0.3,0.3
		c0,0,0.1,0.1,0.1,0.1c0.1,0.1,0.3,0.2,0.4,0.2c0,0,0,0,0,0c0.3,0.1,0.6,0.2,1,0.2h4.2v36.3c0,1.3,1.1,2.4,2.4,2.4h19.6
		c1.5,0,2.6-1.2,2.6-2.6V75.7c0-7.6,6.2-13.8,13.8-13.8v0c7.6,0,13.8,6.2,13.8,13.8v12.2c0,1.5,1.2,2.6,2.6,2.6H86
		c1.3,0,2.4-1.1,2.4-2.4V51.8h4.2c0.3,0,0.7-0.1,1-0.2c0,0,0,0,0,0c0.1-0.1,0.3-0.1,0.4-0.2c0,0,0.1,0,0.1-0.1
		c0.1-0.1,0.2-0.2,0.3-0.3c0,0,0,0,0,0c0,0,0-0.1,0.1-0.1c0.1-0.1,0.1-0.2,0.2-0.2c0-0.1,0.1-0.1,0.1-0.2c0-0.1,0.1-0.1,0.1-0.2
		c0-0.1,0.1-0.1,0.1-0.2c0-0.1,0-0.1,0-0.2c0-0.1,0-0.2,0-0.3C95,49.5,95,49.4,95,49.3C95,49.4,95,49.3,95,49.3z"/>
</g>
</svg>
