<?xml version="1.0" encoding="utf-8"?>
<!-- Generator: Adobe Illustrator 24.1.2, SVG Export Plug-In . SVG Version: 6.00 Build 0)  -->
<svg version="1.1"
	 id="Layer_1" xmlns:cc="http://creativecommons.org/ns#" xmlns:dc="http://purl.org/dc/elements/1.1/" xmlns:inkscape="http://www.inkscape.org/namespaces/inkscape" xmlns:rdf="http://www.w3.org/1999/02/22-rdf-syntax-ns#" xmlns:sodipodi="http://sodipodi.sourceforge.net/DTD/sodipodi-0.dtd" xmlns:svg="http://www.w3.org/2000/svg"
	 xmlns="http://www.w3.org/2000/svg" xmlns:xlink="http://www.w3.org/1999/xlink" x="0px" y="0px" viewBox="0 0 16.9 21.2"
	 style="enable-background:new 0 0 16.9 21.2;" xml:space="preserve">
<style type="text/css">
	.st0{fill:#FFFFFF;}
</style>
<g>
	<path class="st0" d="M3.2,1C3.1,1,3,1.2,3,1.3c0,0,0,0,0,0v14.3c0,0.1,0.1,0.3,0.3,0.3c0,0,0,0,0,0h10.5c0.1,0,0.3-0.1,0.3-0.3V4.5
		c0,0,0,0,0-0.1c0,0,0,0,0,0c0,0,0,0,0,0c0,0,0,0,0,0c0,0,0,0,0,0c0,0,0,0,0,0c0,0,0,0,0,0c0,0,0,0,0,0c0,0,0,0,0,0c0,0,0,0,0,0
		l-3.2-3.2c0-0.1-0.1-0.1-0.2-0.1h0L3.2,1z M3.5,1.6h6.8v2.9c0,0.1,0.1,0.3,0.3,0.3h2.9v10.6h-10L3.5,1.6z M10.8,2l2.3,2.3h-2.3V2z
		 M7,4C6.2,4,5.5,4.7,5.5,5.5c0,0.5,0.2,0.9,0.6,1.2C5.4,7,4.9,7.7,4.9,8.5v1.3c0,0.1,0.1,0.3,0.3,0.3c0,0,0,0,0,0h3.6
		c0.1,0,0.3-0.1,0.3-0.3V8.5c0-0.8-0.5-1.5-1.1-1.8C8.3,6.4,8.5,6,8.5,5.5C8.5,4.7,7.8,4,7,4z M7,4.6c0.5,0,1,0.4,1,1
		c0,0.5-0.4,1-1,1c0,0,0,0,0,0c0,0,0,0,0,0c-0.5,0-1-0.4-1-1C6,5,6.5,4.6,7,4.6z M7,7c0.9,0,1.5,0.7,1.5,1.5v1.1H5.5V8.5
		C5.5,7.7,6.2,7,7,7z M5.2,11.5c-0.1,0-0.3,0.1-0.3,0.3s0.1,0.3,0.3,0.3h6.5c0.1,0,0.3-0.1,0.3-0.3s-0.1-0.3-0.3-0.3H5.2z M5.2,13.5
		c-0.1,0-0.3,0.1-0.3,0.3c0,0.1,0.1,0.3,0.3,0.3h6.5c0.1,0,0.3-0.1,0.3-0.3c0-0.1-0.1-0.3-0.3-0.3H5.2z"/>
</g>
</svg>
